HIERARCHY
ROOT hip
{
  OFFSET 0 0 0
  CHANNELS 6 Xposition Yposition Zposition Zrotation Yrotation Xrotation
  JOINT abdomen
  {
    OFFSET 0 20.6881 -0.73152
    CHANNELS 3 Zrotation Xrotation Yrotation
    JOINT chest
    {
      OFFSET 0 11.7043 -0.48768
      CHANNELS 3 Zrotation Xrotation Yrotation
      JOINT neck
      {
        OFFSET 0 22.1894 -2.19456
        CHANNELS 3 Zrotation Xrotation Yrotation
        JOINT head
        {
          OFFSET -0.24384 7.07133 1.2192
          CHANNELS 3 Zrotation Xrotation Yrotation
          JOINT leftEye
          {
            OFFSET 4.14528 8.04674 8.04672
            CHANNELS 3 Zrotation Xrotation Yrotation
            End Site
            {
              OFFSET 1 0 0
            }
          }
          JOINT rightEye
          {
            OFFSET -3.6576 8.04674 8.04672
            CHANNELS 3 Zrotation Xrotation Yrotation
            End Site
            {
              OFFSET 1 0 0
            }
          }
        }
      }
      JOINT rCollar
      {
        OFFSET -2.68224 19.2634 -4.8768
        CHANNELS 3 Zrotation Xrotation Yrotation
        JOINT rShldr
        {
          OFFSET -8.77824 -1.95073 1.46304
          CHANNELS 3 Zrotation Xrotation Yrotation
          JOINT rForeArm
          {
            OFFSET -28.1742 -1.7115 0.48768
            CHANNELS 3 Zrotation Xrotation Yrotation
            JOINT rHand
            {
              OFFSET -22.5879 0.773209 7.07136
              CHANNELS 3 Zrotation Xrotation Yrotation
              JOINT rThumb1
              {
                OFFSET -1.2192 -0.487915 3.41376
                CHANNELS 3 Zrotation Xrotation Yrotation
                JOINT rThumb2
                {
                  OFFSET -3.37035 -0.52449 3.41376
                  CHANNELS 3 Zrotation Xrotation Yrotation
                  End Site
                  {
                    OFFSET -1.78271 -1.18214 1.43049
                  }
                }
              }
              JOINT rIndex1
              {
                OFFSET -7.75947 0.938293 5.60832
                CHANNELS 3 Zrotation Xrotation Yrotation
                JOINT rIndex2
                {
                  OFFSET -2.54057 -0.884171 1.56538
                  CHANNELS 3 Zrotation Xrotation Yrotation
                  End Site
                  {
                    OFFSET -1.62519 -0.234802 1.16502
                  }
                }
              }
              JOINT rMid1
              {
                OFFSET -8.24714 1.18213 3.41376
                CHANNELS 3 Zrotation Xrotation Yrotation
                JOINT rMid2
                {
                  OFFSET -3.10165 -0.590103 1.0647
                  CHANNELS 3 Zrotation Xrotation Yrotation
                  End Site
                  {
                    OFFSET -2.48547 -0.328903 0.83742
                  }
                }
              }
              JOINT rRing1
              {
                OFFSET -8.82822 0.546677 1.51678
                CHANNELS 3 Zrotation Xrotation Yrotation
                JOINT rRing2
                {
                  OFFSET -2.60934 -0.819778 -0.0198488
                  CHANNELS 3 Zrotation Xrotation Yrotation
                  End Site
                  {
                    OFFSET -2.33842 -0.294052 0.168128
                  }
                }
              }
              JOINT rPinky1
              {
                OFFSET -8.27202 -0.0477905 -0.4584
                CHANNELS 3 Zrotation Xrotation Yrotation
                JOINT rPinky2
                {
                  OFFSET -1.82734 -0.647385 -0.700984
                  CHANNELS 3 Zrotation Xrotation Yrotation
                  End Site
                  {
                    OFFSET -1.69225 -0.51767 -0.607171
                  }
                }
              }
            }
          }
        }
      }
      JOINT lCollar
      {
        OFFSET 2.68224 19.2634 -4.8768
        CHANNELS 3 Zrotation Xrotation Yrotation
        JOINT lShldr
        {
          OFFSET 8.77824 -1.95073 1.46304
          CHANNELS 3 Zrotation Xrotation Yrotation
          JOINT lForeArm
          {
            OFFSET 28.1742 -1.7115 0.48768
            CHANNELS 3 Zrotation Xrotation Yrotation
            JOINT lHand
            {
              OFFSET 22.5879 0.773209 7.07136
              CHANNELS 3 Zrotation Xrotation Yrotation
              JOINT lThumb1
              {
                OFFSET 1.2192 -0.487915 3.41376
                CHANNELS 3 Zrotation Xrotation Yrotation
                JOINT lThumb2
                {
                  OFFSET 3.37035 -0.52449 3.41376
                  CHANNELS 3 Zrotation Xrotation Yrotation
                  End Site
                  {
                    OFFSET 1.78271 -1.18214 1.43049
                  }
                }
              }
              JOINT lIndex1
              {
                OFFSET 7.75947 0.938293 5.60832
                CHANNELS 3 Zrotation Xrotation Yrotation
                JOINT lIndex2
                {
                  OFFSET 2.54057 -0.884171 1.56538
                  CHANNELS 3 Zrotation Xrotation Yrotation
                  End Site
                  {
                    OFFSET 1.62519 -0.234802 1.16502
                  }
                }
              }
              JOINT lMid1
              {
                OFFSET 8.24714 1.18213 3.41376
                CHANNELS 3 Zrotation Xrotation Yrotation
                JOINT lMid2
                {
                  OFFSET 3.10165 -0.590103 1.0647
                  CHANNELS 3 Zrotation Xrotation Yrotation
                  End Site
                  {
                    OFFSET 2.48547 -0.328903 0.83742
                  }
                }
              }
              JOINT lRing1
              {
                OFFSET 8.82822 0.546677 1.51678
                CHANNELS 3 Zrotation Xrotation Yrotation
                JOINT lRing2
                {
                  OFFSET 2.60934 -0.819778 -0.0198488
                  CHANNELS 3 Zrotation Xrotation Yrotation
                  End Site
                  {
                    OFFSET 2.33842 -0.294052 0.168128
                  }
                }
              }
              JOINT lPinky1
              {
                OFFSET 8.27202 -0.0477905 -0.4584
                CHANNELS 3 Zrotation Xrotation Yrotation
                JOINT lPinky2
                {
                  OFFSET 1.82734 -0.647385 -0.700984
                  CHANNELS 3 Zrotation Xrotation Yrotation
                  End Site
                  {
                    OFFSET 1.69225 -0.51767 -0.607171
                  }
                }
              }
            }
          }
        }
      }
    }
  }
  JOINT rButtock
  {
    OFFSET -8.77824 4.35084 1.2192
    CHANNELS 3 Zrotation Xrotation Yrotation
    JOINT rThigh
    {
      OFFSET 0 -1.70687 -2.19456
      CHANNELS 3 Zrotation Xrotation Yrotation
      JOINT rShin
      {
        OFFSET 0 -36.8199 0.73152
        CHANNELS 3 Zrotation Xrotation Yrotation
        JOINT rFoot
        {
          OFFSET 0.73152 -45.1104 -5.12064
          CHANNELS 3 Zrotation Xrotation Yrotation
          End Site
          {
            OFFSET -1.1221 -3.69964 12.103
          }
        }
      }
    }
  }
  JOINT lButtock
  {
    OFFSET 8.77824 4.35084 1.2192
    CHANNELS 3 Zrotation Xrotation Yrotation
    JOINT lThigh
    {
      OFFSET 0 -1.70687 -2.19456
      CHANNELS 3 Zrotation Xrotation Yrotation
      JOINT lShin
      {
        OFFSET 0 -36.8199 0.73152
        CHANNELS 3 Zrotation Xrotation Yrotation
        JOINT lFoot
        {
          OFFSET -0.73152 -45.1104 -5.12064
          CHANNELS 3 Zrotation Xrotation Yrotation
          End Site
          {
            OFFSET 1.1221 -3.69964 12.103
          }
        }
      }
    }
  }
}
MOTION
Frames:	8
Frame Time:	0.03333
47.240300000000005 67.33109999999999 19.7495 37.254162 81.085748 36.681862 -14.109092 13.503805 2.776533 4.922332 -9.569802 8.164801 -13.724716 26.766713 -96.357101 40.709838 12.383003 60.570307 0.001586 0.0 0.002336 0.001586 0.0 0.002336 -155.460208 -3.227979 161.776953 -167.446436 7.782524 -129.422205 -59.04933 49.191981 25.258631 36.400062 -51.107813 28.972845 -7.35018 7.06264 1.570679 -0.60028 1.799061 5.153782 -0.327527 0.529781 0.187048 -173.170791 -29.046203 108.053548 -160.61887 -6.498679 143.219875 -170.282021 -25.7419 143.886799 -0.008741 -0.831329 -0.260074 -156.412859 -25.19183 174.805694 40.002526 85.640629 -0.913996 -161.333854 53.762502 -148.297471 -4.209334 -43.443059 8.384144 -97.212354 31.591922 82.978989 101.619131 -29.292261 -72.082093 177.715551 -50.183415 -153.083099 175.199043 -12.845812 -89.80709 46.258979 -15.854081 -6.374688 174.893904 -54.094934 -119.328763 3.264694 29.534522 0.014936 0.059525 0.167553 -0.032218 2.135103 14.743051 -2.645139 -0.000584 0.063964 -0.018803 -9.347575 11.53478 -1.490376 -12.985596 44.344527 -10.765046 81.175814 -54.190586 80.003163 179.95405 75.749663 0.037807 163.48283 7.94243 88.252238 73.413707 9.510604 77.145546 103.144436 47.349683 -167.420646 -179.988645 75.749673 -0.009343 -158.845605 71.861149 157.844112 -13.265279 -56.950754 -107.135742 15.378947 -49.525793 -44.697054
48.9804 66.92320000000001 20.450499999999998 42.429353 83.074656 43.717241 -10.200245 8.963817 -99.575578 5.849854 3.465997 109.515223 6.889705 21.450903 83.803137 -37.322028 8.061727 -115.632072 0.003243 -0.0 -0.000683 0.003243 -0.0 -0.000683 -148.058023 28.031159 152.902947 4.491931 31.616205 -48.239362 -149.523536 -0.07948 -174.307009 7.241792 -1.985243 6.146857 88.928679 -50.831962 37.599092 -16.43904 -39.525694 -28.835542 -173.600072 -52.692857 119.893447 -60.605501 56.679845 47.882725 89.034973 -81.393612 59.759993 -172.387522 -31.322101 143.871209 -145.101068 -1.5204 -178.650911 12.257355 44.697052 -3.862759 -150.032174 28.966431 -145.935302 65.602354 83.545918 -28.124818 153.050087 10.023161 -158.667281 -149.043596 15.116939 -121.997983 -158.809152 -29.576127 -26.346005 145.588586 37.479581 -123.995923 168.110512 -5.789222 -89.870518 149.152607 3.84636 -76.023605 50.385858 40.826292 -40.025086 67.697596 50.433974 -47.784856 167.37581 -28.008255 -145.269851 163.647103 -5.61452 -143.065557 71.925698 72.974888 -89.771401 156.355449 -45.717927 176.210866 12.373654 -24.158003 11.758616 -75.88493 86.432551 36.796753 -179.999532 75.749345 -0.0 163.467292 5.831789 -84.59073 -70.948293 4.452167 -179.747497 4.054239 -36.377055 -86.142194 -179.999532 75.749345 -0.0 -148.260023 72.683713 -30.38311 13.323553 49.616436 42.935679 48.457865 -34.548981 -9.828466
50.387800000000006 66.7028 21.1076 52.274371 82.390109 54.391484 -16.226372 8.804632 85.204737 -6.383074 -7.504284 -73.608678 -0.89716 34.257391 175.339717 3.008053 49.362142 147.211569 0.000976 -0.0 -0.002908 0.000976 -0.0 -0.002908 0.163225 -0.990014 -0.218745 -105.312643 18.230563 96.480896 -176.255648 -19.720801 -160.484423 -7.671471 43.17156 4.312315 -5.763725 5.575254 1.157785 -122.033656 -16.259605 108.393572 -151.354207 -17.158098 121.133138 -56.289167 56.740321 40.74213 -169.089919 -33.247297 145.375186 18.716978 -43.246746 0.530892 0.005647 1.770396 0.556517 -153.49803 20.320811 168.899107 -25.517097 -38.071588 -24.5778 -126.538503 -30.707113 -125.555119 151.250963 17.631424 -156.523338 2.323332 -30.448372 -69.644295 155.820942 -79.30727 60.490469 10.297679 -31.613909 7.840131 174.391263 -12.052352 -89.859843 -11.648549 -61.207959 -12.42997 -5.919875 -10.174893 2.969595 -3.385207 12.840085 -2.158906 0.057625 0.167876 -0.032126 -3.435778 -0.605179 0.106993 145.100101 -1.521298 178.650549 -11.934526 26.173319 6.017168 -0.09723 0.258378 -0.092476 -1.629393 -2.332416 0.717965 179.989664 75.750882 0.008504 162.083364 3.761494 -95.798339 -75.4354 -18.925366 1.523312 78.406877 87.136674 4.658528 0.000881 -0.00124 0.00022 9.929764 0.051528 -90.030137 -51.684868 -5.432623 -8.517371 93.103418 -30.052645 159.648068
51.63759999999999 66.5068 21.588099999999997 53.285441 81.82972 56.079428 -13.187072 8.834015 -66.85639 8.186496 -0.692525 79.187008 -15.029005 26.242781 -83.837951 41.221987 3.83349 48.357876 -0.001646 0.0 -0.006187 0.00026 0.0 0.001241 4.239297 -44.742719 -8.648253 -135.253035 -23.412579 129.432743 174.34223 17.732515 -158.39989 -15.720494 58.943186 8.612517 -3.029714 2.964367 0.542117 -103.550831 8.037541 94.690409 -90.225784 41.072607 75.796638 -166.763256 -14.429262 114.863634 -0.570547 1.648511 0.321398 86.239568 -78.350568 57.496911 -145.12082 1.977126 -179.747401 11.976005 44.806531 -3.847952 -126.280612 -27.284172 -124.008812 11.4377 24.629483 4.100535 -2.5262 -18.844114 3.786048 102.46473 -10.066012 135.379638 -106.519505 -33.883671 124.931143 33.704178 31.957394 -13.720858 171.70546 -9.388637 -89.949161 171.444384 -8.960096 -90.368594 -2.325633 -3.867957 1.258762 167.282129 -22.326941 -109.470864 89.835366 60.701829 -81.262717 172.000577 -31.385423 -143.875474 74.840566 72.960141 -92.828298 80.915096 83.258482 -89.846353 162.366208 72.063749 150.901154 -71.108414 84.692655 33.826234 179.988546 75.749102 0.007837 162.321476 2.613928 -86.423081 -77.198691 2.036419 -171.232847 -124.077149 -66.780683 135.578693 -0.007806 -0.000739 -0.007806 7.217378 1.950042 91.152087 41.950673 -3.173712 -96.00473 105.355216 24.912401 -9.406683
52.7694 66.3581 21.921499999999998 54.705292 81.711572 58.356307 -13.292299 6.31785 -101.068114 5.621553 3.068338 113.356048 -9.413558 16.468821 -21.108517 15.287967 -26.538598 -10.594437 0.003789 -0.0 -0.00495 0.00557 0.0 0.002511 2.526404 -18.84408 -3.786247 72.221324 -18.001365 67.210019 8.088477 16.694451 19.250005 -11.682747 52.863998 6.33947 -0.441626 0.435348 0.068251 -122.691035 -14.276934 110.101608 -166.866711 -44.037314 122.051584 6.670221 13.901496 -6.708766 -0.128184 0.37566 0.07057 2.946056 0.844793 0.087141 -145.121202 1.975225 -179.748265 11.92323 48.576501 -3.335385 -135.820734 -11.89208 -133.185322 -132.733725 -20.596962 -130.157895 85.537739 68.182553 -88.688842 98.482558 -2.67167 -123.257755 -7.166547 -9.07355 132.962365 159.388782 18.619134 -136.371964 -2.013018 -1.996411 0.275493 160.360953 -72.155707 -118.208711 4.70638 7.224411 -2.853255 86.931007 47.249708 -67.419198 -78.53685 -80.919325 -49.68798 172.382974 -31.321977 -143.878339 0.000644 -0.018345 0.006893 149.978493 38.86644 -164.833454 -4.052419 11.638848 -3.675375 159.762215 55.522572 150.036643 -0.00058 -0.001651 0.000746 -47.219748 -65.040832 -50.005077 -26.454443 75.673953 122.587226 -142.421513 39.294832 73.705054 -179.994429 75.75013 -0.005748 -136.868191 77.309973 -42.252554 -7.786256 46.587465 -116.151906 67.964047 4.165629 149.349057
53.777699999999996 66.1899 22.1132 61.350797 82.381057 65.714602 -13.307998 5.971995 -84.275958 6.620994 0.887612 96.311473 7.702085 27.127206 112.067879 -34.130703 26.239979 -142.029398 -0.00284 0.0 -0.000587 0.002758 -0.0 -0.001773 3.737599 -33.150954 -6.412373 13.330392 21.762024 64.844349 -35.318044 25.513521 12.173504 15.937044 -24.929939 11.590929 -78.030704 38.689215 42.412637 -27.650676 -3.319131 36.300643 2.324145 -3.868468 -1.258 8.357458 5.266461 0.310039 -10.976328 25.78954 7.641479 -167.928305 -19.480629 144.27078 -145.119192 0.267043 -179.213851 -153.330047 -19.050273 -176.449047 -1.169162 -2.962703 -1.083689 2.404022 -0.395519 -0.104947 155.548347 -3.804231 -161.900083 56.962817 -7.129898 -34.784804 -8.122804 14.312884 135.577122 158.580594 20.103169 -135.692248 9.136788 8.700836 -2.078203 156.648687 -62.618225 -111.253878 179.422988 -58.426143 -117.043421 -7.548836 14.113106 5.857736 -89.036495 -81.391607 -59.762401 176.828041 -42.206917 -142.643079 0.021777 -1.725083 0.542937 -6.811767 31.046331 -4.966735 25.538455 -38.08779 24.597394 151.616337 29.048132 146.852912 -0.004554 0.000324 -0.002277 -49.405081 -66.857378 -156.660283 -81.559507 -33.956453 -8.287421 -38.121486 82.865876 130.941876 -179.985862 75.749446 -0.009674 -131.418176 77.797465 -47.748644 3.046801 35.290825 4.558313 41.760482 -2.012756 20.6654
54.6238 66.0767 22.0661 65.17791 82.60582 69.867173 -13.436585 5.341911 -81.698176 6.735423 0.903988 93.276809 6.635586 21.279367 76.077451 -35.288898 3.830504 -112.42583 -0.001283 0.0 -0.003052 -0.001163 0.0 -0.000438 1.698975 -70.103271 -16.502795 46.288852 35.448441 33.570062 89.617241 -50.43356 72.489521 -173.157796 50.023287 149.873113 -175.198115 -12.846139 89.807618 -138.378698 11.425578 70.516371 23.269801 -41.07018 -5.687741 88.248756 -61.667885 33.054429 -0.057723 0.167744 0.033381 -150.717045 27.045831 136.420781 -145.122296 1.975131 -179.747446 11.06522 13.967922 -7.352476 6.228577 18.789704 5.57168 -148.012442 12.685494 -143.870895 146.66646 31.659259 -151.372032 100.726813 14.177131 -79.115868 -1.153927 -21.396199 134.61738 161.292919 13.471656 -138.458031 155.113472 6.918471 -87.738937 152.66569 -4.023465 -75.155102 -159.639081 -69.972737 -102.39468 -6.653388 16.422329 4.187903 -6.909286 -21.623931 2.809882 5.034135 21.305747 -4.424031 145.121105 1.974639 179.748459 -11.622176 56.18567 2.14135 140.593864 -1.002162 137.666253 -1.585908 -2.427131 2.727762 -0.004771 -0.001158 -0.004771 -54.002239 -66.160337 123.604014 37.568798 -72.812908 -109.24142 172.078116 -34.364697 26.101821 179.986947 75.749083 0.011517 -133.899285 76.956173 133.151414 -8.778446 -40.826697 -109.589606 136.444439 -44.982307 27.662738
55.237899999999996 65.9427 21.956500000000002 65.386142 82.16904 70.135763 -14.138496 3.639199 -110.789627 4.197164 3.93863 122.635497 6.555261 21.442393 75.90305 -35.188913 3.533378 -112.630438 -0.005723 0.0 -0.001525 0.000799 0.0 0.002366 -154.201979 4.221689 160.107434 14.50471 9.172137 -48.875237 -153.243403 15.303547 -176.359994 4.486949 4.108895 4.255518 -103.199433 36.3318 60.11185 -133.800735 -18.08787 74.874226 159.637681 -69.972519 102.392527 -17.917958 42.721512 12.475101 -36.036576 51.723133 29.83197 -170.157874 -26.286918 144.192525 -145.119161 0.267842 -179.212327 11.193655 13.761163 -7.375037 26.852083 80.012143 10.217678 13.908327 40.292611 7.10723 -0.071092 -0.427722 0.095527 111.516992 14.516561 151.515532 126.742452 -9.686781 56.149799 -8.058979 -78.419577 5.747753 6.580155 6.345278 -1.365574 122.549568 -17.409917 -108.469591 45.475678 39.420101 -35.670944 78.233157 50.388768 -56.889829 160.57409 -6.359238 -143.198092 163.432978 -5.205332 -143.009706 145.120719 1.975792 179.748114 -11.930206 36.625857 4.846012 -29.716242 82.141429 -8.108203 22.941442 -38.396359 23.05921 0.002325 -0.001013 -0.0 -54.783854 -64.464139 34.159739 75.220253 11.661321 -77.533284 156.604942 -27.28886 -0.738922 0.003502 -0.000863 0.003502 10.064635 8.134263 -66.099426 -29.691771 18.413465 110.497322 -155.586676 -11.115947 0.130392
